<svg width="39" height="34" viewBox="0 0 39 34" fill="none" xmlns="http://www.w3.org/2000/svg">
<path d="M4.97849 18.5357C8.92781 15.7078 11.9378 15.7396 14.0085 18.6314C14.8135 19.7557 15.2813 21.1034 15.4119 22.6747C15.5426 24.2963 15.2835 25.8619 14.6348 27.3713C13.9291 29.0226 12.8235 30.3872 11.3181 31.4651C10.0032 32.4067 8.61803 32.9229 7.16254 33.0138C5.57084 33.1158 4.23048 32.6379 3.14146 31.58C3.11281 31.5501 3.08314 31.5136 3.05244 31.4708C3.02174 31.4279 2.99715 31.3734 2.97868 31.3074C2.96022 31.2413 2.96013 31.1657 2.97842 31.0806C3.01435 30.9395 3.10987 30.781 3.26496 30.6051C4.20053 30.9153 5.21782 30.922 6.31683 30.625C6.34264 29.9868 6.35046 29.102 6.34027 27.9706C6.32668 26.8345 6.31882 25.9429 6.31669 25.2958C6.31457 24.6487 6.3203 24.0177 6.33388 23.4026C6.36634 22.0389 6.46452 20.9633 6.62843 20.1757C6.66901 19.9304 6.88236 19.7704 7.26848 19.6957C7.36858 19.6745 7.4578 19.6683 7.53614 19.677C7.44016 20.3079 7.44076 21.1038 7.53793 22.0648C7.63645 23.0176 7.72729 23.8137 7.81046 24.4532C7.8984 25.0893 7.9853 25.7189 8.07117 26.342C8.28757 27.9023 8.41353 29.0192 8.44906 29.6928C8.69137 29.5481 9.00309 29.3393 9.38421 29.0664C9.77009 28.7901 10.1671 28.3833 10.5751 27.8461C10.9832 27.3089 11.3265 26.7316 11.605 26.1141C11.8801 25.4919 12.0895 24.8483 12.2331 24.1834C12.3767 23.5184 12.4468 22.8665 12.4433 22.2276C12.4417 20.8667 12.1373 19.7622 11.5301 18.9142C10.2918 17.1849 8.23396 17.3505 5.35652 19.4109C4.40373 20.0931 3.63838 20.8862 3.06048 21.7901C2.39623 22.835 2.27049 23.6457 2.68326 24.2222C3.06873 24.7605 3.59289 25.0698 4.25574 25.1501C4.15311 25.9226 3.97317 26.401 3.71592 26.5852C3.43008 26.7899 3.04387 26.789 2.5573 26.5825C2.0789 26.3773 1.69642 26.0747 1.40987 25.6745C1.11991 25.2696 0.960728 24.8611 0.932317 24.449C0.900495 24.0322 0.953807 23.6085 1.09225 23.1778C1.23205 22.739 1.44031 22.3052 1.71703 21.8765C1.9951 21.4395 2.31202 21.0216 2.66779 20.6227C3.34598 19.8488 4.11621 19.1532 4.97849 18.5357ZM19.5183 21.0423C20.1494 21.3399 20.9532 21.139 21.9298 20.4397C22.5396 20.003 23.0079 19.4443 23.3348 18.7634C23.6629 18.0744 23.8119 17.3012 23.7816 16.4436C23.9857 16.2758 24.156 16.2872 24.2925 16.4778C24.446 16.6922 24.5391 17.0939 24.5718 17.6831C24.6059 18.264 24.5996 18.7586 24.5531 19.1666C24.5114 19.5713 24.4291 19.9797 24.3063 20.3919C24.1848 20.796 24.0215 21.1868 23.8162 21.5644C23.3738 22.3857 22.7762 23.0658 22.0235 23.6048C20.5085 24.6896 19.2246 24.9748 18.1716 24.4604C17.7913 24.2715 17.4613 23.9817 17.1816 23.5911C16.8984 23.1957 16.7059 22.7859 16.6039 22.3616C16.5067 21.934 16.4714 21.4872 16.4981 21.0213C16.5214 20.5506 16.607 20.0713 16.7549 19.5834C16.9028 19.0956 17.1049 18.623 17.3612 18.1656C17.8974 17.1835 18.5919 16.3871 19.4447 15.7765C20.0592 15.3364 20.619 15.2274 21.124 15.4496C21.3005 15.525 21.4689 15.6746 21.6292 15.8985C21.7862 16.1177 21.8842 16.3754 21.9234 16.6716C21.9673 16.9645 21.9571 17.2672 21.8928 17.58C21.825 17.8879 21.7127 18.199 21.5557 18.5132C21.3953 18.8226 21.2063 19.1273 20.9887 19.4272C20.6065 19.9603 20.1164 20.4987 19.5183 21.0423ZM18.9424 20.4493C19.501 19.9412 19.9039 19.3969 20.1512 18.8162C20.4086 18.1995 20.4009 17.7006 20.128 17.3195C19.8517 16.9336 19.5372 16.8669 19.1847 17.1193C18.7274 17.4468 18.4865 17.9508 18.4621 18.6312C18.4383 19.2824 18.5984 19.8885 18.9424 20.4493ZM29.0213 16.7563C28.9144 17.9858 28.3917 18.9366 27.4532 19.6087C26.8578 20.0351 26.2534 20.1976 25.6403 20.0961C25.0353 19.996 24.5264 19.6577 24.1137 19.0813C23.5918 18.3524 23.371 17.4403 23.4515 16.3449C23.5265 15.2823 23.8617 14.2207 24.4572 13.1601C25.0757 12.0614 25.8804 11.1572 26.8713 10.4477C27.2477 10.1782 27.5595 10.045 27.8068 10.0481C27.8262 9.80358 27.8775 9.63357 27.9604 9.53811C28.0448 9.43448 28.1155 9.3622 28.1727 9.32126C28.3537 9.19163 28.5654 9.07968 28.8078 8.9854C28.8331 9.06097 28.8694 9.19716 28.9166 9.39395C28.9604 9.58598 29.0175 9.81171 29.088 10.0711C29.1585 10.3306 29.2378 10.6125 29.326 10.9168C29.6372 12.0056 29.9481 12.7668 30.2585 13.2003C30.5655 13.629 30.8548 13.7462 31.1263 13.5518C31.4789 13.2993 31.7576 12.8583 31.9626 12.2287C32.1404 11.6618 32.2193 11.0575 32.1995 10.4159C32.4037 10.2481 32.574 10.2595 32.7104 10.45C32.8264 10.612 32.9037 10.9314 32.9424 11.4081C32.9859 11.8815 33.0017 12.3061 32.9899 12.6821C32.9781 13.0581 32.9414 13.4447 32.8799 13.8419C32.8184 14.2391 32.7255 14.6227 32.6013 14.9927C32.3183 15.8151 31.9028 16.4225 31.3549 16.8148C30.6594 17.3129 30.0424 17.4376 29.504 17.1889C29.3357 17.1149 29.2174 17.0302 29.1492 16.9349C29.0776 16.8349 29.0349 16.7753 29.0213 16.7563ZM25.5806 16.2689C25.9763 16.8215 26.4052 16.9323 26.8673 16.6014C27.3771 16.2364 27.6823 15.3945 27.7829 14.0757C27.8359 13.3748 27.8549 12.727 27.8399 12.1324C27.8296 11.5343 27.8209 11.0794 27.8137 10.7674C26.6296 11.6298 25.8355 12.6091 25.4315 13.7056C25.0499 14.7427 25.0996 15.5971 25.5806 16.2689ZM32.6317 0.874668C33.1605 0.496015 33.7439 0.752119 34.3818 1.64298C35.2244 2.81968 35.4001 4.57477 34.9091 6.90825C34.7241 7.79735 34.4612 8.63784 34.1202 9.42973C34.7075 10.119 35.2768 10.3455 35.8283 10.1092C36.0046 10.0334 36.1952 9.92214 36.4 9.77545C36.6096 9.62535 36.8148 9.43882 37.0155 9.21585C37.2175 8.98471 37.3933 8.72192 37.5428 8.4275C37.8771 7.7773 38.0278 7.05682 37.9949 6.26605C38.199 6.09825 38.3693 6.10963 38.5058 6.30019C38.5604 6.37641 38.6222 6.57353 38.6914 6.89154C38.7653 7.20614 38.804 7.65769 38.8074 8.24619C38.8074 8.82993 38.7271 9.41716 38.5663 10.0079C38.1987 11.3665 37.4742 12.433 36.3928 13.2074C35.1447 14.1011 34.0075 14.1083 32.9814 13.2288C32.6568 12.9567 32.3479 12.6158 32.0545 12.2061C31.7577 11.7916 31.5212 11.3304 31.3448 10.8225C31.1685 10.3146 31.0385 9.78073 30.9547 9.22093C30.8675 8.65637 30.8205 8.07746 30.8137 7.48419C30.8116 6.88752 30.8409 6.30443 30.9016 5.73493C30.967 5.16201 31.0576 4.61427 31.1734 4.0917C31.2859 3.56436 31.4178 3.08435 31.5692 2.65165C31.9012 1.73649 32.2554 1.14416 32.6317 0.874668ZM33.501 8.56507C33.9432 7.49175 34.1875 6.4088 34.2339 5.3162C34.283 4.20724 34.1131 3.38122 33.7242 2.83813C33.5298 2.56658 33.3327 2.4122 33.1331 2.37497C33.0643 2.35938 32.9822 2.3857 32.887 2.45393C32.7917 2.52216 32.7026 2.6796 32.6198 2.92627C32.5336 3.16818 32.475 3.45875 32.4441 3.798C32.4132 4.13724 32.4119 4.51289 32.4403 4.92495C32.4701 5.32883 32.5278 5.74153 32.6134 6.16305C32.8141 7.10756 33.11 7.90823 33.501 8.56507Z" fill="#FA1010"/>
</svg>
