<svg width="24" height="28" viewBox="0 0 24 28" fill="none" xmlns="http://www.w3.org/2000/svg">
<path d="M12.0002 4.56216e-08C13.0626 -0.000161452 14.0867 0.42845 14.8714 1.20168C15.6561 1.9749 16.1447 3.03689 16.2413 4.1791H22.839C23.1333 4.1792 23.4165 4.29987 23.6315 4.51673C23.8465 4.73359 23.9772 5.03047 23.9973 5.34738C24.0174 5.66429 23.9252 5.97761 23.7396 6.22402C23.5539 6.47043 23.2885 6.63157 22.997 6.67487L22.839 6.68657H21.9363L19.9745 25.0412C19.8871 25.8559 19.5254 26.6076 18.9581 27.1532C18.3908 27.6987 17.6575 28.0001 16.8978 28H7.10256C6.34283 28.0001 5.60956 27.6987 5.04227 27.1532C4.47498 26.6076 4.11323 25.8559 4.02587 25.0412L2.06248 6.68657H1.16131C0.880677 6.68655 0.609544 6.57684 0.398049 6.3777C0.186554 6.17857 0.0490045 5.90349 0.0108388 5.60334L0 5.43284C1.18343e-05 5.12987 0.101642 4.83716 0.286095 4.60883C0.470548 4.38051 0.725347 4.23201 1.00337 4.19081L1.16131 4.1791H7.75908C7.85567 3.03689 8.34427 1.9749 9.12897 1.20168C9.91367 0.42845 10.9378 -0.000161452 12.0002 4.56216e-08ZM9.67756 10.4478C9.2982 10.4478 8.98078 10.7069 8.91574 11.0479L8.90336 11.1799V21.4187L8.91574 21.5491C8.98078 21.8902 9.2982 22.1493 9.67756 22.1493C10.0569 22.1493 10.3743 21.8902 10.4394 21.5491L10.4518 21.4171V11.1816L10.4394 11.0479C10.3743 10.7085 10.0569 10.4478 9.67756 10.4478ZM14.3228 10.4478C13.9434 10.4478 13.626 10.7069 13.561 11.0479L13.5486 11.1799V21.4187L13.561 21.5491C13.626 21.8902 13.9434 22.1493 14.3228 22.1493C14.7022 22.1493 15.0196 21.8902 15.0846 21.5491L15.097 21.4171V11.1816L15.0846 11.0479C15.0196 10.7085 14.7022 10.4494 14.3228 10.4494V10.4478ZM12.0002 2.50746C11.0634 2.50746 10.2814 3.22627 10.1034 4.1791H13.897C13.7174 3.22627 12.937 2.50746 12.0002 2.50746Z" fill="white"/>
</svg>
