<svg width="29" height="35" viewBox="0 0 29 35" fill="none" xmlns="http://www.w3.org/2000/svg">
<path d="M14.5264 5.7027e-08C15.7374 -0.000201815 16.9046 0.535562 17.799 1.5021C18.6934 2.46863 19.2503 3.79611 19.3604 5.22388H26.8806C27.216 5.224 27.5388 5.37484 27.7839 5.64591C28.0289 5.91699 28.1779 6.28809 28.2008 6.68423C28.2237 7.08037 28.1187 7.47201 27.907 7.78003C27.6954 8.08804 27.3929 8.28946 27.0606 8.34358L26.8806 8.35821H25.8517L23.6156 31.3015C23.516 32.3199 23.1037 33.2595 22.4571 33.9414C21.8105 34.6234 20.9747 35.0001 20.1087 35H8.94406C8.07811 35.0001 7.24233 34.6234 6.59573 33.9414C5.94912 33.2595 5.53681 32.3199 5.43722 31.3015L3.19934 8.35821H2.17218C1.85231 8.35819 1.54327 8.22104 1.30221 7.97213C1.06115 7.72321 0.904366 7.37937 0.860865 7.00418L0.848511 6.79104C0.848524 6.41234 0.964363 6.04645 1.1746 5.76104C1.38485 5.47563 1.67527 5.29001 1.99216 5.23851L2.17218 5.22388H9.69237C9.80246 3.79611 10.3594 2.46863 11.2538 1.5021C12.1482 0.535562 13.3155 -0.000201815 14.5264 5.7027e-08ZM11.8791 13.0597C11.4467 13.0597 11.0849 13.3836 11.0107 13.8099L10.9966 13.9749V26.7734L11.0107 26.9364C11.0849 27.3627 11.4467 27.6866 11.8791 27.6866C12.3115 27.6866 12.6733 27.3627 12.7474 26.9364L12.7615 26.7713V13.977L12.7474 13.8099C12.6733 13.3857 12.3115 13.0597 11.8791 13.0597ZM17.1737 13.0597C16.7413 13.0597 16.3795 13.3836 16.3054 13.8099L16.2913 13.9749V26.7734L16.3054 26.9364C16.3795 27.3627 16.7413 27.6866 17.1737 27.6866C17.6061 27.6866 17.9679 27.3627 18.0421 26.9364L18.0562 26.7713V13.977L18.0421 13.8099C17.9679 13.3857 17.6061 13.0618 17.1737 13.0618V13.0597ZM14.5264 3.13433C13.4586 3.13433 12.5674 4.03284 12.3644 5.22388H16.6884C16.4837 4.03284 15.5942 3.13433 14.5264 3.13433Z" fill="black"/>
</svg>
