<svg width="28" height="30" viewBox="0 0 28 30" fill="none" xmlns="http://www.w3.org/2000/svg">
<path d="M26.9463 8.32211L24.4832 11.0234C24.2321 11.2988 23.826 11.2988 23.5749 11.0234L17.644 4.51922C17.3929 4.24382 17.3929 3.79849 17.644 3.52309L20.1072 0.82181C21.1063 -0.273937 22.7306 -0.273937 23.7351 0.82181L26.9463 4.34343C27.9508 5.43918 27.9508 7.2205 26.9463 8.32211ZM15.5282 5.84349L1.4972 21.2308L0.364467 28.3502C0.209517 29.3112 0.973579 30.1433 1.84985 29.9792L8.3417 28.7311L22.3727 13.3438C22.6238 13.0684 22.6238 12.6231 22.3727 12.3477L16.4418 5.84349C16.1854 5.56809 15.7793 5.56809 15.5282 5.84349ZM6.97387 19.9124C6.68 19.5901 6.68 19.0745 6.97387 18.7522L15.2022 9.72841C15.4961 9.40614 15.9663 9.40614 16.2602 9.72841C16.554 10.0507 16.554 10.5663 16.2602 10.8886L8.0318 19.9124C7.73793 20.2347 7.26774 20.2347 6.97387 19.9124ZM5.04501 24.8403H7.6097V26.9674L4.1634 27.6295L2.5017 25.8072L3.10547 22.0277H5.04501V24.8403Z" fill="black"/>
</svg>
