<svg width="30" height="23" viewBox="0 0 30 23" fill="none" xmlns="http://www.w3.org/2000/svg">
<path d="M26.2873 13.8889H11.0194L11.3603 15.2778H25.3404C26.1425 15.2778 26.737 15.8985 26.5593 16.5503L26.2719 17.6039C27.2454 17.9977 27.9167 18.8293 27.9167 19.7917C27.9167 21.1459 26.5876 22.2415 24.9571 22.222C23.4038 22.2033 22.1264 21.1529 22.0844 19.8588C22.0615 19.1519 22.4014 18.5112 22.9596 18.0555H12.0404C12.5809 18.4967 12.9167 19.1114 12.9167 19.7917C12.9167 21.1724 11.535 22.2843 9.86094 22.2195C8.37448 22.162 7.16557 21.1612 7.08745 19.9228C7.02714 18.9664 7.63099 18.1235 8.54844 17.6838L4.88974 2.77778H1.25C0.559636 2.77778 0 2.31141 0 1.73611V1.04167C0 0.466363 0.559636 0 1.25 0H6.59005C7.18386 0 7.69568 0.348134 7.81469 0.832899L8.29208 2.77778H28.7495C29.5516 2.77778 30.1462 3.39848 29.9684 4.0503L27.5063 13.0781C27.3769 13.5523 26.871 13.8889 26.2873 13.8889ZM21.25 7.29167H18.75V5.55556C18.75 5.17201 18.3769 4.86111 17.9167 4.86111H17.0833C16.6231 4.86111 16.25 5.17201 16.25 5.55556V7.29167H13.75C13.2897 7.29167 12.9167 7.60256 12.9167 7.98611V8.68056C12.9167 9.06411 13.2897 9.375 13.75 9.375H16.25V11.1111C16.25 11.4947 16.6231 11.8056 17.0833 11.8056H17.9167C18.3769 11.8056 18.75 11.4947 18.75 11.1111V9.375H21.25C21.7103 9.375 22.0833 9.06411 22.0833 8.68056V7.98611C22.0833 7.60256 21.7103 7.29167 21.25 7.29167Z" fill="white"/>
</svg>
